HIERARCHY
ROOT Hips
{
	OFFSET 0.000000 0.000000 0.000000
	CHANNELS 6 Xposition Yposition Zposition Xrotation Yrotation Zrotation
	JOINT LeftUpLeg_virtual
	{
		OFFSET 0.000000 0.000000 0.000000
		CHANNELS 3 Xrotation Yrotation Zrotation
		JOINT LeftUpLeg
		{
			OFFSET 15.427100 -6.655098 0.678600
			CHANNELS 3 Xrotation Yrotation Zrotation
			JOINT LeftLeg
			{
				OFFSET 4.081073 -39.591068 13.024000
				CHANNELS 3 Xrotation Yrotation Zrotation
				JOINT LeftFoot
				{
					OFFSET -4.081074 -37.707932 -15.979700
					CHANNELS 3 Xrotation Yrotation Zrotation
					JOINT LeftToeBase
					{
						OFFSET 5.346399 -15.068900 20.645000
						CHANNELS 3 Xrotation Yrotation Zrotation
						JOINT LeftToe_End
						{
							OFFSET 2.754700 0.931300 11.300900
							CHANNELS 3 Xrotation Yrotation Zrotation
							End Site
							{
								OFFSET 0 0 0
							}
						}
					}
				}
			}
		}
	}
	JOINT RightUpLeg_virtual
	{
		OFFSET 0.000000 0.000000 0.000000
		CHANNELS 3 Xrotation Yrotation Zrotation
		JOINT RightUpLeg
		{
			OFFSET -15.569500 -6.655098 0.678600
			CHANNELS 3 Xrotation Yrotation Zrotation
			JOINT RightLeg
			{
				OFFSET -4.081825 -39.591045 13.023800
				CHANNELS 3 Xrotation Yrotation Zrotation
				JOINT RightFoot
				{
					OFFSET 4.081824 -37.707954 -15.979600
					CHANNELS 3 Xrotation Yrotation Zrotation
					JOINT RightToeBase
					{
						OFFSET -5.346400 -15.068900 20.645000
						CHANNELS 3 Xrotation Yrotation Zrotation
						JOINT RightToe_End
						{
							OFFSET -2.754700 0.931300 11.300900
							CHANNELS 3 Xrotation Yrotation Zrotation
							End Site
							{
								OFFSET 0 0 0
							}
						}
					}
				}
			}
		}
	}
	JOINT Spine_virtual
	{
		OFFSET 0.000000 0.000000 0.000000
		CHANNELS 3 Xrotation Yrotation Zrotation
		JOINT Spine
		{
			OFFSET -0.279200 12.230698 -2.892100
			CHANNELS 3 Xrotation Yrotation Zrotation
			JOINT Spine1
			{
				OFFSET -0.232667 10.192268 -1.242267
				CHANNELS 3 Xrotation Yrotation Zrotation
				JOINT Spine1_split
				{
					OFFSET -0.232667 10.192268 -1.242267
					CHANNELS 3 Xrotation Yrotation Zrotation
					JOINT Spine2
					{
						OFFSET -0.232667 10.192268 -1.242267
						CHANNELS 3 Xrotation Yrotation Zrotation
						JOINT Neck_virtual
						{
							OFFSET 0.000000 0.000000 0.000000
							CHANNELS 3 Xrotation Yrotation Zrotation
							JOINT Neck
							{
								OFFSET -0.418800 17.814194 8.416900
								CHANNELS 3 Xrotation Yrotation Zrotation
								JOINT Head
								{
									OFFSET 0.000000 7.031097 3.806800
									CHANNELS 3 Xrotation Yrotation Zrotation
									JOINT HeadTop_End
									{
										OFFSET 0.000000 24.646606 12.978600
										CHANNELS 3 Xrotation Yrotation Zrotation
										End Site
										{
											OFFSET 0 0 0
										}
									}
								}
							}
						}
						JOINT LeftShoulder_virtual
						{
							OFFSET 0.000000 0.000000 0.000000
							CHANNELS 3 Xrotation Yrotation Zrotation
							JOINT LeftShoulder
							{
								OFFSET 8.476499 7.247704 -3.868750
								CHANNELS 3 Xrotation Yrotation Zrotation
								JOINT LeftShoulder_split
								{
									OFFSET 8.476499 7.247704 -3.868750
									CHANNELS 3 Xrotation Yrotation Zrotation
									JOINT LeftArm
									{
										OFFSET 9.308998 -2.777710 0.208600
										CHANNELS 3 Xrotation Yrotation Zrotation
										JOINT LeftForeArm
										{
											OFFSET 29.972298 0.000000 0.000000
											CHANNELS 3 Xrotation Yrotation Zrotation
											JOINT LeftHand
											{
												OFFSET 26.026505 0.000000 0.000000
												CHANNELS 3 Xrotation Yrotation Zrotation
												End Site
												{
													OFFSET 0 0 0
												}
											}
										}
									}
								}
							}
						}
						JOINT RightShoulder_virtual
						{
							OFFSET 0.000000 0.000000 0.000000
							CHANNELS 3 Xrotation Yrotation Zrotation
							JOINT RightShoulder
							{
								OFFSET -7.570500 7.247704 -3.868750
								CHANNELS 3 Xrotation Yrotation Zrotation
								JOINT RightShoulder_split
								{
									OFFSET -7.570500 7.247704 -3.868750
									CHANNELS 3 Xrotation Yrotation Zrotation
									JOINT RightArm
									{
										OFFSET -9.308998 -2.777710 0.208500
										CHANNELS 3 Xrotation Yrotation Zrotation
										JOINT RightForeArm
										{
											OFFSET -29.972300 0.000000 0.000000
											CHANNELS 3 Xrotation Yrotation Zrotation
											JOINT RightHand
											{
												OFFSET -26.026505 0.000000 0.000000
												CHANNELS 3 Xrotation Yrotation Zrotation
												End Site
												{
													OFFSET 0 0 0
												}
											}
										}
									}
								}
							}
						}
					}
				}
			}
		}
	}
}
MOTION
Frames: 6
Frame Time: 0.03333333
-15.214303 19.527241 -63.037666 0.000000 0.000000 0.000000 -91.404822 21.330580 2.098801 -58.224330 9.341062 34.376178 62.340503 10.351733 0.628128 37.416053 2.445834 -15.159111 -3.461083 0.664954 -1.170776 0.000000 0.000000 0.000000 -92.013023 24.034971 3.342617 -38.314605 -4.408729 -45.766297 92.335920 16.624564 8.004284 19.700750 1.184567 18.610242 -2.588580 1.823247 0.509884 0.000000 0.000000 0.000000 -89.937465 20.345914 -0.176118 56.908330 11.224903 -1.966278 18.487136 4.038877 0.609366 0.335101 -2.499845 0.657684 0.000000 0.000000 0.000000 22.061615 4.092011 0.229875 12.677612 -1.385775 -3.339748 29.966304 1.174276 0.496280 0.000000 0.000000 0.000000 20.247471 3.368571 -0.018626 1.326154 -4.451652 -10.223149 -2.796510 -2.794168 -5.515312 -35.324608 -18.749769 -35.548170 -7.869976 -56.077602 -2.427605 0.000000 0.000000 0.000000 19.476341 3.146361 0.575640 0.062841 12.163826 16.657663 -1.730737 -0.421003 -2.908859 -25.809919 -7.274922 35.477194 1.549477 46.437199 -2.245338 0.000000 0.000000 0.000000 
-16.180059 19.463497 -65.373146 0.000000 0.000000 0.000000 -98.921923 20.911201 1.997888 -52.002520 5.982840 34.412528 61.559429 8.661740 1.930005 36.726801 1.396776 -13.491745 -3.689204 0.897924 -1.477778 0.000000 0.000000 0.000000 -99.207098 24.736211 4.854912 -25.923075 -3.200693 -37.219238 88.878144 15.953264 2.703507 14.877299 -0.979718 22.804038 -2.743087 1.575601 0.515501 0.000000 0.000000 0.000000 -98.173792 20.290853 -0.383212 54.851890 11.629177 -0.271306 19.263010 4.174992 0.718979 0.577758 -2.551608 0.995183 0.000000 0.000000 0.000000 22.072849 4.229921 0.080773 12.754344 -2.184374 -3.155109 31.844343 0.995466 -1.178691 0.000000 0.000000 0.000000 20.600394 3.484918 0.181003 1.045225 -4.022838 -8.761345 -2.025554 -2.512763 -5.337366 -30.059328 -19.140125 -32.750156 -9.548861 -58.374219 -3.863395 0.000000 0.000000 0.000000 19.895873 3.410596 0.684692 -0.089633 13.109677 16.144103 -2.342516 1.887017 -2.870830 -15.188244 -6.221761 35.508391 1.609684 41.306518 -1.534360 0.000000 0.000000 0.000000 
-16.944981 19.737732 -67.598686 0.000000 0.000000 0.000000 -105.825954 20.374207 1.775684 -45.836757 2.875245 35.411973 60.474994 6.465792 2.812308 36.710761 -0.523292 -12.321859 -3.194337 1.161423 -1.684750 0.000000 0.000000 0.000000 -105.719519 25.197959 6.314431 -14.945622 -0.393048 -30.409706 86.345667 14.675382 -1.631804 9.407877 -4.310640 23.407586 -0.573363 1.385176 0.655991 0.000000 0.000000 0.000000 -105.809486 20.470060 -0.380395 52.487466 10.685503 1.452591 19.093934 3.844998 0.769617 1.748389 -2.178912 1.700159 0.000000 0.000000 0.000000 21.302083 3.905179 -0.049562 12.406274 -2.866218 -2.513855 32.045615 0.733098 -2.913860 0.000000 0.000000 0.000000 19.935796 3.076636 0.356319 0.589783 -4.149870 -7.623140 -1.205566 -2.111460 -4.678912 -24.270741 -19.303745 -30.999804 -10.206676 -58.674590 -4.623046 0.000000 0.000000 0.000000 19.387946 3.165878 0.777817 0.158672 13.892959 15.226549 -3.217395 3.655998 -2.826871 -4.053221 -3.478019 35.066755 1.785916 33.935214 -1.044128 0.000000 0.000000 0.000000 
-17.758465 20.392159 -70.026115 0.000000 0.000000 0.000000 -111.760446 19.897193 1.713162 -39.678550 0.635116 37.442277 58.791366 4.297480 3.353584 36.450688 -2.806703 -11.924270 -2.622217 1.395204 -1.651716 0.000000 0.000000 0.000000 -111.585244 25.261446 7.557539 -6.859265 2.709492 -26.038602 85.387910 13.085385 -4.417929 5.266954 -7.404634 21.026391 2.444900 1.314090 0.702480 0.000000 0.000000 0.000000 -112.394458 20.850940 0.201027 49.799780 8.235978 2.765204 17.799623 2.935450 0.707073 2.311333 -1.706945 2.223733 0.000000 0.000000 0.000000 19.648443 3.034205 -0.181502 11.703075 -3.373571 -1.434922 30.955442 0.952164 -4.927687 0.000000 0.000000 0.000000 18.225211 2.112267 0.423285 0.093446 -4.317415 -6.936463 -0.428227 -1.708160 -3.563702 -17.304759 -19.396803 -30.118037 -9.390334 -56.851216 -4.284241 0.000000 0.000000 0.000000 17.862992 2.254447 0.788771 0.779051 13.938974 14.021312 -3.542000 4.219006 -2.827910 6.676002 0.281551 34.728319 2.199181 29.405737 -0.956942 0.000000 0.000000 0.000000 
-18.691824 21.357662 -72.602982 0.000000 0.000000 0.000000 -116.487702 19.529596 1.929216 -33.947594 -0.458749 40.265335 56.530460 2.481636 3.537173 35.270994 -5.064758 -12.338359 -2.534348 1.540691 -1.222458 0.000000 0.000000 0.000000 -116.689684 25.062450 8.742880 -2.123586 5.356114 -23.976904 86.270487 12.079793 -5.892807 4.080044 -8.605600 18.708633 3.701651 1.329316 0.441861 0.000000 0.000000 0.000000 -117.631089 21.192274 1.377687 46.888907 4.430087 3.321237 15.536739 1.481608 0.486975 2.348127 -1.219618 2.267911 0.000000 0.000000 0.000000 17.216955 1.616022 -0.332133 10.245612 -3.618930 -0.290396 28.829692 1.868797 -7.303590 0.000000 0.000000 0.000000 15.737423 0.650604 0.362492 -0.315171 -4.254742 -6.361943 -0.255761 -1.020076 -2.778519 -8.654875 -19.442065 -29.398770 -7.848078 -53.129501 -3.410587 0.000000 0.000000 0.000000 15.416664 0.676700 0.668410 1.594143 12.882433 12.734200 -3.105603 3.470763 -2.953231 16.591701 4.090982 34.794548 2.752769 31.487520 -1.285951 0.000000 0.000000 0.000000 
-19.770943 22.427677 -75.224228 0.000000 0.000000 0.000000 -120.143342 19.148326 2.343896 -29.303202 -0.816436 43.366893 54.421574 1.297069 3.475907 33.330527 -6.920312 -13.540737 -2.981544 1.595482 -0.514864 0.000000 0.000000 0.000000 -120.949236 24.556676 9.693863 -0.227021 7.672066 -23.301626 88.687507 11.789613 -6.641492 5.442903 -7.863317 17.631090 2.570883 1.345215 -0.030966 0.000000 0.000000 0.000000 -121.575960 21.068852 2.730684 44.083431 -0.207041 3.131260 12.697506 -0.340904 0.090434 1.536340 -1.033904 1.759793 0.000000 0.000000 0.000000 14.297761 -0.141583 -0.514328 7.945930 -3.638647 0.687326 26.109824 3.684545 -9.982767 0.000000 0.000000 0.000000 12.916919 -1.141935 0.138639 -0.558721 -3.550112 -5.736962 -0.531538 -0.435854 -2.432961 1.520150 -19.190055 -27.965339 -6.357228 -48.683632 -2.564799 0.000000 0.000000 0.000000 12.513659 -1.323806 0.354058 2.359795 10.754442 11.129955 -1.816172 1.843097 -2.899396 25.120292 6.975862 34.934481 3.485673 40.258248 -2.127596 0.000000 0.000000 0.000000 
